<?xml version="1.0" standalone="no"?>
<!DOCTYPE svg PUBLIC "-//W3C//DTD SVG 20010904//EN"
 "http://www.w3.org/TR/2001/REC-SVG-20010904/DTD/svg10.dtd">
<svg version="1.0" xmlns="http://www.w3.org/2000/svg"
 width="500.000000pt" height="500.000000pt" viewBox="0 0 500.000000 500.000000"
 preserveAspectRatio="xMidYMid meet">

<g transform="translate(0.000000,500.000000) scale(0.100000,-0.100000)"
fill="#000000" stroke="none">
<path d="M0 2500 l0 -2500 2500 0 2500 0 0 2500 0 2500 -2500 0 -2500 0 0
-2500z m3210 540 l0 -170 -191 0 -190 0 3 -22 c3 -23 5 -23 191 -26 l187 -2 0
-325 0 -325 -125 0 -125 0 -2 188 -3 187 -187 3 -188 2 0 240 0 240 -395 0
-395 0 0 90 0 90 710 0 710 0 0 -170z m-1080 -275 l0 -225 -35 0 c-28 0 -35
-4 -35 -20 0 -16 7 -20 35 -20 l35 0 0 -355 0 -355 -170 0 -170 0 0 600 0 600
170 0 170 0 0 -225z m408 -207 l2 -428 335 0 335 0 0 -170 0 -170 -520 0 -520
0 0 593 c0 327 3 597 7 601 4 3 86 5 182 4 l176 -3 3 -427z m380 -220 l-3
-163 -92 -3 -93 -3 0 76 0 75 -75 0 -75 0 0 90 0 90 170 0 170 0 -2 -162z
m-233 -113 l0 -50 -50 0 -50 0 -3 53 -3 53 53 -3 53 -3 0 -50z"/>
</g>
</svg>
