<?xml version="1.0" standalone="no"?>
<!DOCTYPE svg PUBLIC "-//W3C//DTD SVG 20010904//EN"
 "http://www.w3.org/TR/2001/REC-SVG-20010904/DTD/svg10.dtd">
<svg version="1.0" xmlns="http://www.w3.org/2000/svg"
 width="500.000000pt" height="500.000000pt" viewBox="0 0 500.000000 500.000000"
 preserveAspectRatio="xMidYMid meet">

<g transform="translate(0.000000,500.000000) scale(0.100000,-0.100000)"
fill="#000000" stroke="none">
<path d="M0 2500 l0 -2500 2500 0 2500 0 0 2500 0 2500 -2500 0 -2500 0 0
-2500z m2110 1475 c0 -13 -24 -15 -160 -15 -136 0 -160 2 -160 15 0 13 24 15
160 15 136 0 160 -2 160 -15z m1100 -250 l0 -175 -191 0 c-176 0 -190 -1 -187
-17 3 -16 21 -18 191 -21 l187 -2 0 -325 0 -325 -125 0 -125 0 0 185 0 185
-190 0 -190 0 -2 243 -3 242 -392 3 -393 2 0 90 0 90 710 0 710 0 0 -175z
m-1080 -270 l0 -225 -35 0 c-28 0 -35 -4 -35 -20 0 -16 7 -20 35 -20 l35 0 0
-355 0 -355 -170 0 -170 0 0 600 0 600 170 0 170 0 0 -225z m408 -207 l2 -428
335 0 335 0 0 -170 0 -170 -520 0 -520 0 0 593 c0 327 3 597 7 601 4 3 86 5
182 4 l176 -3 3 -427z m382 -223 l0 -165 -95 0 -94 0 -3 73 -3 72 -72 3 -73 3
0 89 0 90 170 0 170 0 0 -165z m-235 -110 l0 -50 -52 -3 -53 -3 0 56 0 56 53
-3 52 -3 0 -50z m-704 -574 c37 -37 38 -79 4 -119 -14 -17 -25 -33 -25 -37 0
-5 11 -23 25 -41 30 -39 31 -44 6 -44 -10 0 -30 18 -46 40 -25 36 -32 40 -71
40 l-44 0 0 -40 c0 -33 -3 -40 -20 -40 -19 0 -20 7 -20 135 l0 135 81 0 c76 0
82 -2 110 -29z m166 -36 c21 -35 41 -65 45 -65 4 0 24 29 45 65 24 40 45 65
56 65 9 0 17 -3 17 -7 0 -5 -23 -44 -50 -88 -42 -67 -50 -88 -50 -127 0 -41
-3 -48 -20 -48 -17 0 -20 7 -20 50 0 40 -7 62 -38 112 -65 106 -66 108 -43
108 14 0 32 -19 58 -65z m73 -382 c25 -56 48 -104 51 -107 3 -3 27 44 53 104
43 98 65 127 79 103 7 -13 -111 -268 -126 -271 -8 -2 -19 3 -24 10 -13 16
-113 245 -113 259 0 6 8 9 17 7 12 -2 34 -40 63 -105z m455 87 c0 -12 -17 -16
-77 -18 l-78 -3 0 -39 0 -40 71 0 c62 0 70 -2 67 -17 -3 -15 -16 -19 -71 -21
l-67 -3 0 -39 0 -40 80 0 c74 0 80 -2 80 -20 0 -20 -5 -21 -97 -18 l-98 3 -3
124 c-1 69 0 131 3 138 7 21 190 14 190 -7z m256 10 c69 -19 90 -93 43 -150
l-26 -31 27 -40 c14 -23 24 -43 22 -46 -12 -11 -44 10 -69 47 -25 35 -32 40
-68 40 l-40 0 0 -46 c0 -38 -3 -45 -17 -42 -16 3 -18 18 -21 128 -1 68 0 130
2 137 6 16 94 18 147 3z"/>
<path d="M1830 2280 l0 -60 53 0 c59 0 87 19 87 58 0 38 -34 62 -90 62 l-50 0
0 -60z"/>
<path d="M2820 1930 l0 -60 48 0 c59 0 92 21 92 59 0 42 -28 61 -88 61 l-52 0
0 -60z"/>
</g>
</svg>
